<?xml version="1.0" standalone="no"?>
<!DOCTYPE svg PUBLIC "-//W3C//DTD SVG 20010904//EN"
 "http://www.w3.org/TR/2001/REC-SVG-20010904/DTD/svg10.dtd">
<svg version="1.0" xmlns="http://www.w3.org/2000/svg"
 width="1024.000000pt" height="1024.000000pt" viewBox="0 0 1024.000000 1024.000000"
 preserveAspectRatio="xMidYMid meet">

<g transform="translate(0.000000,1024.000000) scale(0.100000,-0.100000)"
fill="#000000" stroke="none">
<path d="M4535 9864 c-50 -13 -190 -82 -320 -157 -38 -22 -104 -72 -145 -111
-64 -61 -149 -116 -178 -116 -21 0 -46 -44 -53 -93 -4 -28 -14 -79 -21 -112
-17 -83 -17 -410 1 -495 19 -88 27 -536 10 -556 -6 -8 -33 -26 -59 -40 -43
-23 -48 -31 -60 -77 -23 -100 1 -269 67 -472 38 -117 91 -175 159 -175 70 0
114 -47 114 -121 0 -66 56 -255 90 -304 61 -89 70 -148 35 -230 -7 -16 -16
-43 -20 -59 -7 -33 -36 -60 -46 -45 -8 14 -64 -35 -101 -90 -38 -54 -80 -97
-128 -131 -19 -13 -37 -27 -40 -30 -14 -15 -93 -63 -160 -96 -92 -45 -98 -48
-185 -75 -38 -12 -78 -25 -87 -30 -10 -5 -22 -9 -28 -9 -6 0 -29 -8 -53 -19
-23 -10 -58 -24 -77 -31 -19 -7 -53 -20 -75 -29 -22 -10 -60 -23 -85 -31 -25
-7 -49 -17 -54 -22 -6 -4 -18 -8 -28 -8 -10 0 -26 -4 -36 -9 -23 -12 -60 -26
-102 -41 -19 -7 -44 -16 -55 -20 -11 -4 -36 -13 -55 -20 -19 -7 -44 -16 -55
-20 -11 -4 -36 -13 -55 -20 -57 -20 -73 -26 -118 -49 -24 -11 -48 -21 -54 -21
-5 0 -47 -18 -91 -39 -45 -22 -104 -47 -132 -56 -73 -24 -90 -38 -120 -99 -32
-66 -43 -107 -56 -206 -5 -41 -14 -102 -19 -135 -6 -33 -14 -98 -19 -145 -5
-47 -14 -101 -20 -120 -5 -19 -13 -46 -17 -60 -4 -14 -15 -37 -26 -52 -10 -14
-18 -29 -18 -33 0 -4 -8 -19 -18 -33 -21 -30 -54 -115 -70 -177 -28 -111 -32
-146 -32 -283 0 -142 -7 -185 -37 -237 -7 -11 -21 -36 -32 -55 -63 -108 -78
-155 -90 -290 -5 -47 -14 -101 -21 -120 -7 -19 -16 -57 -21 -85 -5 -27 -11
-67 -15 -88 -3 -20 -10 -40 -15 -43 -5 -3 -9 -12 -9 -19 0 -8 -13 -44 -30 -80
-16 -36 -30 -71 -30 -78 0 -7 -4 -17 -9 -23 -5 -5 -11 -31 -14 -59 -6 -56 -15
-100 -26 -130 -18 -45 -31 -93 -31 -113 0 -11 -5 -24 -10 -27 -6 -3 -10 -21
-10 -40 0 -19 -4 -44 -9 -57 -5 -13 -14 -41 -20 -63 -7 -22 -16 -49 -20 -60
-21 -51 -31 -94 -31 -128 0 -20 -5 -49 -11 -64 -6 -15 -16 -39 -22 -53 -39
-98 -47 -135 -47 -221 0 -132 28 -198 158 -370 130 -174 239 -272 386 -348 53
-27 98 -61 144 -108 72 -73 247 -205 434 -326 143 -93 156 -110 139 -180 -7
-29 -17 -113 -21 -187 -4 -74 -13 -155 -19 -180 -13 -50 -27 -109 -42 -185 -6
-27 -14 -102 -19 -165 -4 -63 -13 -137 -20 -165 -6 -27 -14 -65 -17 -82 l-5
-33 2313 0 2313 0 -48 31 c-27 16 -46 32 -43 35 8 8 87 -16 139 -42 46 -23 55
-24 266 -24 164 0 222 3 230 12 5 7 12 31 15 53 4 22 11 67 16 100 6 33 15 89
21 125 5 36 15 90 21 120 23 108 10 416 -21 520 -14 49 -20 85 -16 109 4 20
11 86 16 146 5 61 14 137 21 170 6 33 13 203 15 380 l5 320 29 60 c30 62 37
90 47 187 4 48 0 72 -25 145 -20 59 -32 116 -36 173 -3 47 -10 112 -16 145
-29 161 -30 170 -60 700 -8 158 -17 227 -42 355 -6 36 -11 85 -9 110 8 93 4
216 -8 260 -19 74 -33 253 -37 470 -2 167 -6 213 -20 250 -15 36 -19 92 -25
290 -4 135 -11 281 -17 325 -14 130 -71 231 -158 286 -17 10 -112 51 -210 90
-99 39 -208 84 -244 101 -36 16 -87 40 -115 53 -27 13 -99 46 -158 74 -60 28
-112 51 -117 51 -5 0 -35 12 -67 26 -32 14 -105 43 -163 64 -301 109 -298 108
-350 154 -19 17 -59 47 -87 66 -61 41 -96 91 -118 169 -9 31 -21 66 -26 79
-13 34 -11 95 5 133 13 31 26 49 95 128 18 21 54 89 81 156 11 26 20 73 29
160 12 110 28 134 83 126 4 0 23 6 42 14 36 15 116 118 116 149 0 9 5 16 10
16 6 0 10 9 10 19 0 11 5 23 10 26 6 3 10 16 10 29 0 12 4 26 9 32 5 5 12 29
15 54 3 25 10 77 16 115 27 172 21 255 -18 288 -13 10 -15 8 -9 -13 5 -23 5
-24 -8 -7 -12 17 -15 18 -38 2 -30 -19 -42 -45 -22 -45 30 0 47 -46 43 -119
-4 -89 10 -77 19 15 7 88 19 112 29 60 4 -26 0 -77 -14 -150 -12 -61 -24 -131
-28 -156 -13 -91 -105 -260 -155 -285 -31 -17 -77 -19 -98 -6 -11 7 -10 27 8
122 25 131 66 268 85 283 18 15 29 65 18 79 -16 21 -20 68 -12 136 7 55 13 69
37 88 25 20 28 29 29 85 1 35 6 88 12 118 6 30 16 103 21 162 5 58 14 132 20
165 6 32 12 124 13 204 l3 146 -56 60 c-58 64 -61 69 -95 232 -27 129 -58 171
-194 268 -63 45 -131 88 -150 96 -58 24 -190 67 -270 89 -41 11 -91 25 -110
30 -19 6 -118 15 -220 20 -345 16 -412 17 -465 2z m691 -884 c13 0 24 -4 24
-10 0 -6 16 -8 38 -5 27 3 33 2 22 -6 -11 -7 -6 -8 19 -4 26 6 32 4 26 -6 -6
-9 -4 -11 7 -6 9 3 28 -1 43 -9 15 -8 34 -14 41 -14 8 0 14 -7 14 -15 0 -18
17 -20 23 -2 3 9 7 9 19 -1 13 -10 19 -10 31 3 20 19 27 19 27 0 0 -8 5 -15
10 -15 6 0 10 6 10 13 0 9 11 12 35 9 30 -4 35 -7 29 -24 -4 -14 -2 -18 5 -14
15 10 81 -57 81 -82 0 -11 7 -27 15 -36 22 -22 35 -61 25 -76 -5 -9 -4 -20 2
-27 6 -7 7 -21 3 -30 -10 -23 -13 -93 -4 -93 4 0 10 -11 13 -25 3 -13 20 -44
36 -69 17 -24 30 -51 30 -60 0 -9 5 -16 10 -16 6 0 10 -10 10 -22 0 -19 -2
-20 -10 -8 -6 9 -10 10 -10 3 0 -6 4 -14 9 -17 5 -3 7 -24 4 -46 -4 -27 -2
-40 6 -40 7 0 11 -6 10 -12 -1 -7 0 -20 4 -28 10 -26 27 -194 27 -266 0 -38
-7 -94 -15 -124 -9 -30 -18 -72 -22 -92 -3 -21 -9 -38 -13 -38 -4 0 -7 -6 -8
-12 -8 -96 -17 -149 -30 -176 -8 -19 -15 -55 -14 -80 0 -32 -2 -41 -7 -28 -7
19 -8 19 -13 -2 -3 -12 -3 -21 1 -20 18 2 21 -4 10 -23 -6 -12 -7 -19 -1 -15
12 7 4 -33 -9 -50 -5 -6 -10 -27 -11 -47 -2 -20 -7 -37 -13 -37 -5 0 -4 -5 2
-11 8 -8 7 -16 -5 -29 -32 -33 -67 -83 -67 -94 0 -6 -7 -18 -15 -27 -24 -26
-118 -133 -132 -150 -21 -26 -98 -81 -98 -71 0 12 -38 -17 -94 -74 -23 -23
-51 -44 -63 -48 -13 -4 -23 -11 -23 -15 0 -4 -24 -17 -52 -29 -54 -21 -133
-25 -146 -6 -11 15 -61 34 -91 34 -16 0 -48 7 -71 15 -23 8 -55 16 -71 17 -17
1 -37 10 -46 20 -9 10 -20 15 -24 12 -5 -3 -24 6 -43 21 -41 31 -40 72 3 81
14 3 35 9 46 14 61 25 78 28 195 36 71 5 88 9 102 27 9 11 14 30 12 41 -4 24
13 46 37 46 10 0 20 4 23 8 3 5 -31 7 -74 4 -66 -4 -80 -2 -80 10 0 18 -34 51
-43 41 -4 -3 -7 6 -7 22 0 16 -3 25 -7 22 -3 -4 -6 -20 -5 -37 1 -34 -12 -39
-28 -11 -16 30 -12 48 11 54 25 7 51 -2 43 -14 -9 -15 13 -10 26 6 7 9 25 13
48 11 20 -2 43 2 51 8 11 8 15 8 18 -1 3 -7 11 -13 18 -13 23 0 25 -29 2 -45
-12 -8 -16 -15 -10 -15 7 0 15 5 18 10 3 6 15 10 26 10 10 0 19 5 19 11 0 5 5
7 10 4 6 -3 10 -1 10 4 0 6 -11 11 -24 11 -13 0 -29 7 -36 15 -15 18 -10 18
24 5 20 -7 24 -6 19 6 -6 17 35 14 46 -4 5 -8 16 -6 40 9 l33 20 32 -21 c35
-21 46 -18 46 11 0 29 -47 59 -81 52 -17 -3 -40 -1 -52 5 -129 64 -151 69
-276 62 -24 -1 -46 2 -50 6 -8 11 -32 15 -94 15 -40 0 -50 4 -56 22 -7 20 -8
20 -15 -6 -3 -15 -11 -27 -17 -27 -7 0 -6 6 2 17 12 14 12 16 -1 11 -11 -4
-16 0 -16 13 0 12 7 19 18 19 10 0 18 4 18 8 0 4 11 9 25 10 19 1 23 -2 18
-16 -5 -13 1 -11 24 8 17 14 34 34 37 46 3 11 22 29 41 40 41 22 49 16 59 -47
3 -22 11 -39 17 -39 8 0 9 11 4 33 -13 57 -8 98 17 127 9 10 14 21 11 24 -4 3
2 6 13 6 11 0 27 -9 36 -20 25 -29 64 -35 93 -16 14 9 25 22 25 29 0 15 -91
67 -116 67 -12 0 -15 -3 -8 -8 7 -4 -1 -13 -22 -24 -29 -15 -35 -15 -48 -3 -8
8 -19 15 -25 15 -5 0 -18 11 -29 25 -11 13 -21 22 -24 20 -8 -8 -40 72 -40 98
0 14 7 40 16 57 13 27 15 53 10 144 -10 205 -11 221 -3 248 9 31 -7 54 -61 87
-19 11 -28 21 -20 21 12 1 11 3 -2 11 -10 5 -18 17 -18 25 0 8 -4 12 -10 9 -5
-3 -10 2 -10 11 0 10 -3 14 -7 11 -3 -4 -15 1 -26 10 -20 17 -20 17 -13 -1 7
-19 6 -19 -14 -1 -11 10 -20 13 -20 7 0 -7 -10 -6 -27 4 -16 7 -49 14 -74 14
-25 0 -49 3 -53 8 -4 4 -41 8 -83 9 -71 1 -104 10 -75 20 7 3 17 16 22 29 5
13 17 24 26 24 12 0 15 5 9 23 -15 49 -22 98 -15 102 5 3 11 -1 13 -7 3 -7 6
-3 6 9 1 12 -5 24 -11 27 -10 5 -10 7 1 12 11 5 11 8 0 15 -10 6 -11 9 -1 9 6
0 12 8 12 17 0 13 3 14 12 5 18 -18 27 -15 21 8 -3 11 0 20 6 20 12 0 3 31
-13 42 -7 5 -7 8 2 8 10 0 12 12 8 45 -4 28 -2 45 5 45 6 0 8 9 4 20 -5 14 -2
20 10 20 9 0 14 4 11 9 -3 5 7 11 22 14 51 10 86 18 93 23 4 2 47 4 96 3 150
-1 172 0 212 11 20 5 74 16 119 24 45 8 89 21 97 30 12 12 22 13 41 6 14 -6
36 -10 50 -10z m-1139 -576 c-3 -3 -12 -4 -19 -1 -8 3 -5 6 6 6 11 1 17 -2 13
-5z m443 -283 c0 -6 -4 -13 -10 -16 -5 -3 -10 1 -10 9 0 9 5 16 10 16 6 0 10
-4 10 -9z m70 -26 c14 -17 10 -50 -8 -51 -6 -1 -19 -2 -27 -3 -12 -1 -13 -5
-5 -21 7 -12 16 -17 27 -13 11 4 14 3 9 -5 -10 -17 -23 -15 -46 8 l-21 21 21
26 c11 14 20 32 20 39 0 18 14 18 30 -1z m83 -77 c3 -9 -8 -13 -34 -15 -22 0
-39 3 -39 9 0 5 4 7 9 3 5 -3 12 -1 16 5 9 14 42 13 48 -2z m-13 -48 c9 -6 11
-13 5 -17 -14 -11 -17 -33 -5 -33 12 0 13 -33 1 -45 -9 -9 -14 -49 -23 -155
-3 -27 -23 -85 -51 -143 -26 -54 -47 -104 -47 -112 0 -8 -4 -17 -10 -20 -5 -3
-10 -15 -10 -25 0 -27 -38 -52 -61 -40 -10 6 -31 10 -48 10 -23 0 -29 4 -25
15 4 8 2 15 -4 15 -6 0 -15 14 -21 32 -9 24 -8 34 1 40 10 6 10 10 -1 17 -9 6
-12 19 -8 37 5 27 4 28 -10 9 -14 -19 -14 -17 -9 25 3 25 3 37 0 28 -3 -10
-10 -18 -15 -18 -6 0 -7 10 -4 23 7 22 7 22 -9 2 -15 -18 -16 -18 -14 -2 2 10
-7 22 -22 30 -14 7 -26 21 -28 32 -2 10 -13 26 -23 34 -26 21 -40 73 -25 92
11 14 66 23 66 10 0 -4 13 -8 30 -8 18 0 27 4 23 11 -10 16 -11 46 -1 46 4 0
8 -7 8 -15 0 -8 5 -15 11 -15 6 0 9 7 5 15 -4 11 1 15 19 15 13 0 26 4 30 10
3 5 11 7 18 4 7 -2 28 7 46 20 19 14 38 23 43 20 4 -3 15 2 24 11 9 9 23 14
30 11 8 -3 14 -2 14 3 0 13 50 20 51 7 0 -7 3 -6 6 2 2 6 10 9 16 5 6 -4 8 0
4 10 -7 19 1 21 23 7z m-618 -243 c6 -11 5 -17 -2 -17 -5 0 -10 5 -10 10 0 6
-5 9 -11 8 -6 -2 -13 2 -16 9 -6 18 28 9 39 -10z m673 -387 c3 -5 1 -10 -4
-10 -6 0 -11 5 -11 10 0 6 2 10 4 10 3 0 8 -4 11 -10z m-26 -27 c0 -25 -1 -25
-8 -8 -5 11 -7 23 -4 28 8 14 13 7 12 -20z m-173 -240 c-11 -11 -19 6 -11 24
8 17 8 17 12 0 3 -10 2 -21 -1 -24z m321 -5 c-3 -7 -5 -2 -5 12 0 14 2 19 5
13 2 -7 2 -19 0 -25z m33 2 c0 -16 -4 -30 -9 -30 -7 0 -8 19 -2 53 3 19 11 4
11 -23z m697 -245 c-22 -19 -34 -36 -28 -40 8 -4 8 -13 0 -27 -10 -18 -9 -20
6 -14 15 6 16 4 5 -9 -12 -15 -15 -14 -27 7 l-14 23 7 -25 c4 -14 9 -27 13
-30 3 -3 12 -17 19 -31 12 -23 11 -35 -11 -97 -29 -82 -18 -89 12 -8 12 33 21
83 22 130 1 42 6 79 12 83 6 3 7 1 3 -5 -3 -6 -2 -13 4 -17 31 -19 79 -335 90
-595 8 -188 12 -225 35 -295 23 -74 61 -212 89 -330 8 -34 9 -60 2 -83 -7 -25
-4 -78 10 -190 29 -240 26 -524 -10 -757 -15 -99 -36 -199 -46 -223 -11 -24
-25 -74 -31 -111 -22 -132 -119 -415 -176 -513 -18 -31 -42 -85 -53 -120 -18
-59 -70 -135 -83 -122 -3 3 -8 -21 -12 -53 -3 -32 -13 -78 -21 -103 -21 -61
-24 -69 -23 -76 0 -4 -3 -10 -8 -13 -5 -3 -17 -19 -27 -35 -14 -22 -20 -25
-25 -15 -8 16 3 601 18 984 15 374 -3 845 -40 1035 -16 84 -27 116 -79 230
-51 110 -67 170 -54 192 4 7 9 19 10 28 8 75 41 170 59 170 14 0 156 -73 197
-102 14 -10 30 -18 35 -18 4 0 34 -20 66 -45 35 -26 65 -41 74 -38 11 4 -30
52 -144 166 -243 245 -358 330 -417 307 -15 -5 -46 -9 -69 -9 -50 2 -82 -7
-119 -33 -16 -11 -28 -15 -28 -9 0 6 -5 11 -11 11 -5 0 -7 -5 -3 -12 5 -8 2
-9 -10 -5 -10 4 -23 7 -29 7 -6 0 -2 7 9 15 10 8 30 15 45 15 33 0 52 19 38
37 -17 20 -44 16 -108 -17 -70 -35 -129 -73 -233 -153 -91 -68 -96 -75 -59
-69 31 4 26 10 137 -158 31 -47 66 -96 79 -110 12 -14 35 -46 50 -72 30 -54
31 -107 2 -208 -8 -30 -20 -91 -26 -135 -14 -99 -14 -386 0 -480 12 -87 28
-384 23 -445 -2 -25 1 -98 6 -164 7 -78 7 -140 0 -181 -6 -35 -11 -81 -12
-104 -1 -23 -3 -41 -5 -41 -3 0 -36 66 -75 147 -114 240 -266 630 -368 948
-36 111 -41 141 -65 395 -14 151 -30 311 -35 355 -6 44 -10 91 -10 105 1 25 1
25 16 -5 l14 -30 -5 39 c-2 22 -8 42 -13 45 -8 5 -30 138 -46 275 l-6 50 28
-27 29 -28 18 46 c14 32 24 44 35 40 15 -5 40 34 40 62 0 7 4 13 9 13 5 0 7 9
4 20 -4 14 0 20 11 20 11 0 16 9 16 26 0 15 4 23 10 19 6 -4 22 1 36 9 14 10
57 19 105 23 47 3 86 12 94 20 10 9 16 10 21 2 4 -8 8 -8 13 0 4 6 37 -13 84
-50 43 -33 82 -57 87 -54 5 3 12 0 16 -6 5 -8 3 -9 -6 -4 -9 5 -11 4 -6 -4 5
-7 16 -9 28 -5 16 5 20 3 15 -9 -4 -11 -2 -14 9 -10 7 3 14 10 14 17 0 6 4 5
9 -3 8 -12 13 -12 24 -3 8 7 22 10 31 6 12 -5 15 -2 10 10 -5 12 -2 15 10 10
9 -3 16 -1 16 5 0 6 7 11 15 11 8 0 15 3 15 8 0 4 14 13 30 20 17 8 28 18 24
23 -3 5 1 9 8 10 7 0 4 4 -7 9 -16 7 -17 9 -3 9 23 1 70 48 55 55 -7 2 -6 5 3
5 8 1 29 13 45 27 29 26 29 26 5 20 -14 -3 -19 -3 -11 0 11 5 11 8 0 16 -10 7
-7 7 8 3 19 -5 24 -1 32 27 5 18 10 27 10 21 2 -22 28 -14 35 10 5 18 8 20 16
7 7 -11 10 -11 10 -2 0 7 7 15 15 18 17 7 182 164 172 164 -4 0 5 14 20 30 14
17 31 30 38 30 6 0 11 9 12 21 3 33 22 50 44 38 10 -5 19 -7 19 -4 0 13 -6 20
-15 17 -5 -2 10 17 34 42 25 25 47 43 50 40 3 -3 -11 -21 -32 -39z m-1407
-161 c0 -8 -4 -14 -10 -14 -5 0 -7 -7 -4 -15 4 -8 3 -15 0 -15 -4 0 -11 12
-17 27 -7 19 -7 28 3 34 15 10 28 2 28 -17z m960 -224 c0 -5 -5 -10 -11 -10
-5 0 -7 5 -4 10 3 6 8 10 11 10 2 0 4 -4 4 -10z m-94 -442 c121 -5 71 -18 -64
-17 -121 1 -125 1 -82 13 25 7 52 12 60 10 8 -2 47 -5 86 -6z m-2333 -3015
c19 -36 40 -207 56 -448 5 -71 12 -141 16 -155 8 -30 -9 -78 -30 -86 -10 -4
-33 11 -64 42 -26 27 -65 63 -86 81 -35 31 -37 34 -30 75 8 55 9 118 0 193 -6
52 -4 68 18 115 22 48 46 107 78 188 11 30 26 28 42 -5z m1712 -959 c22 -7 28
-11 13 -9 -15 3 -29 1 -32 -3 -2 -4 10 -9 27 -10 18 -2 34 -7 35 -12 2 -6 10
-10 18 -10 18 0 19 -73 1 -92 -8 -7 -12 -19 -9 -27 3 -10 -1 -12 -17 -8 -11 3
-21 1 -21 -4 0 -4 -9 -13 -20 -19 -11 -6 -20 -7 -19 -3 1 4 1 15 0 23 -1 13
-3 13 -10 1 -6 -9 -6 -23 1 -35 11 -20 10 -20 -9 -3 -26 22 -36 22 -24 -2 6
-10 7 -22 3 -26 -4 -5 -1 -5 6 -1 6 4 12 3 12 -2 0 -5 9 -12 21 -15 12 -3 18
-10 14 -16 -3 -6 0 -9 9 -5 9 3 25 -9 43 -32 15 -20 36 -45 46 -55 9 -11 14
-20 10 -20 -23 -4 81 -18 133 -18 33 -1 87 -10 120 -21 32 -11 65 -20 72 -20
7 0 34 -9 59 -21 47 -21 117 -33 107 -18 -3 5 0 9 5 9 6 0 12 -7 12 -15 4 -51
3 -72 -5 -68 -4 3 -5 -4 -1 -16 7 -22 -10 -30 -18 -8 -3 6 -6 0 -6 -15 -1 -15
-6 -30 -12 -34 -8 -4 -9 1 -5 17 l6 24 -11 -22 c-11 -21 -13 -22 -25 -5 -12
16 -13 16 -14 0 0 -14 -7 -16 -35 -11 -24 4 -36 1 -40 -8 -4 -11 -22 -13 -83
-9 -48 4 -80 2 -84 -5 -5 -6 -12 -5 -19 5 -7 10 -12 11 -15 3 -4 -8 -12 -8
-31 2 -15 8 -30 12 -35 9 -4 -3 -31 -9 -59 -13 -46 -8 -52 -6 -67 16 -9 13
-25 33 -35 45 -10 13 -16 30 -14 40 3 10 1 18 -4 18 -5 0 -12 18 -15 40 -4 22
-11 40 -16 40 -10 0 -8 17 7 51 5 14 1 17 -22 16 -15 -1 -31 -6 -35 -12 -5 -6
-8 -6 -8 2 0 7 -7 10 -15 7 -20 -8 -68 43 -62 66 3 11 0 18 -7 17 -6 -1 -11 8
-10 19 0 15 -4 21 -15 17 -9 -2 -3 3 13 12 15 9 39 15 52 12 14 -2 21 0 17 6
-4 6 5 7 23 3 25 -5 27 -4 13 6 -9 7 -30 24 -47 38 -36 28 -40 40 -14 41 12 0
10 3 -8 11 -14 6 -20 12 -13 15 7 2 9 11 6 19 -3 8 3 21 13 29 11 8 14 14 7
15 -9 0 -7 6 5 18 9 11 20 17 25 15 4 -2 7 1 7 8 0 9 3 9 15 -1 8 -6 23 -9 36
-5 23 8 16 20 -16 28 -16 4 -15 5 5 5 14 0 43 -6 65 -14z m-58 -10 c-3 -3 -12
-4 -19 -1 -8 3 -5 6 6 6 11 1 17 -2 13 -5z m140 -10 c-3 -3 -12 -4 -19 -1 -8
3 -5 6 6 6 11 1 17 -2 13 -5z m33 -34 c0 -5 -2 -10 -4 -10 -3 0 -8 5 -11 10
-3 6 -1 10 4 10 6 0 11 -4 11 -10z m254 -42 c-6 -10 -4 -10 7 -2 24 18 48 24
55 12 4 -6 3 -8 -3 -5 -6 4 -13 0 -17 -8 -6 -17 9 -29 29 -22 8 4 16 -4 20
-20 7 -27 35 -62 35 -43 0 6 5 8 10 5 8 -5 8 -11 0 -20 -7 -8 -7 -15 -1 -19 5
-4 12 -2 15 3 8 13 72 5 68 -9 -1 -6 2 -9 8 -5 18 11 32 -5 19 -21 -10 -12 -9
-13 5 -8 9 3 16 11 16 17 0 6 7 2 16 -9 8 -10 12 -12 8 -4 -7 13 -5 13 9 1 18
-14 23 -26 8 -17 -5 3 -12 -1 -15 -10 -3 -8 -2 -12 4 -9 6 3 10 -4 10 -16 0
-12 -3 -20 -6 -16 -4 3 -13 -1 -21 -9 -16 -16 -34 -15 -36 1 -1 10 -89 36 -96
29 -3 -2 4 -11 15 -18 19 -14 19 -14 -1 -13 -23 2 -45 20 -45 37 0 7 -8 9 -22
4 -33 -11 -56 -7 -74 10 -8 9 -20 16 -25 16 -5 0 -9 7 -9 15 0 8 -5 15 -11 15
-18 0 -41 30 -35 45 3 8 1 17 -4 20 -13 8 -13 72 0 80 6 3 10 -4 11 -17 1 -19
4 -16 16 14 13 32 17 35 30 23 8 -8 11 -20 7 -27z m-277 0 c-3 -8 -6 -5 -6 6
-1 11 2 17 5 13 3 -3 4 -12 1 -19z m14 -31 c-17 -17 -22 -3 -8 26 11 25 12 25
15 6 2 -12 -1 -26 -7 -32z m159 13 l-8 -35 -1 31 c-1 17 2 34 6 37 11 12 12 3
3 -33z m-440 -38 c0 -5 11 -22 25 -38 13 -15 23 -29 22 -30 -1 -1 -29 4 -62
11 -33 7 -52 13 -41 14 15 1 16 4 7 15 -16 19 6 27 34 13 18 -9 19 -9 6 6 -9
11 -10 17 -2 17 6 0 11 -4 11 -8z m-3 -78 c-3 -3 -12 -4 -19 -1 -8 3 -5 6 6 6
11 1 17 -2 13 -5z m-335 -54 c-23 -16 -59 -52 -81 -80 -36 -46 -39 -54 -36
-100 2 -28 -1 -50 -6 -50 -5 0 -9 -7 -9 -16 0 -8 -4 -13 -9 -9 -6 3 -4 22 5
47 19 55 11 60 -11 6 -31 -76 -54 -157 -72 -246 -22 -114 -21 -313 2 -383 10
-28 15 -53 12 -55 -9 -9 -37 90 -47 168 -5 42 -12 90 -16 105 -4 22 -3 25 5
13 9 -12 11 -11 11 8 0 15 -4 21 -12 16 -7 -5 -9 -2 -5 9 4 11 2 14 -9 10 -9
-3 -14 0 -12 7 2 7 -3 15 -11 18 -8 3 -11 0 -7 -7 4 -6 2 -11 -3 -11 -16 0
-14 21 9 111 46 179 113 327 182 404 36 39 52 49 89 55 72 12 74 11 31 -20z
m1095 -46 c-3 -3 -12 -4 -19 -1 -8 3 -5 6 6 6 11 1 17 -2 13 -5z m-107 -318
c0 -3 -4 -8 -10 -11 -5 -3 -10 -1 -10 4 0 6 5 11 10 11 6 0 10 -2 10 -4z m120
-85 c11 -22 14 -78 3 -68 -3 4 -15 0 -25 -10 -10 -9 -18 -11 -18 -5 0 12 -36
4 -66 -15 -11 -7 -24 -10 -27 -6 -4 3 -7 2 -7 -4 0 -5 -6 -10 -12 -11 -7 0
-31 -5 -53 -11 -22 -5 -60 -11 -85 -12 -25 -1 -49 -5 -55 -9 -20 -14 -154 -50
-185 -50 -33 0 -70 15 -70 29 0 5 -8 26 -17 47 -22 53 -23 57 -7 79 14 19 53
22 154 13 46 -3 386 31 415 43 32 12 44 10 55 -10z m-38 -255 c12 -17 9 -66
-4 -79 -12 -11 -37 -17 -78 -21 -8 0 -18 -5 -21 -10 -8 -10 -86 -25 -169 -32
-36 -2 -78 -9 -95 -14 -109 -33 -131 -37 -159 -29 -20 6 -32 5 -37 -2 -4 -7
-8 -5 -12 4 -6 16 3 27 41 46 20 11 27 10 43 -5 17 -16 19 -16 19 -1 0 10 8
17 20 17 11 0 20 -7 20 -15 0 -9 6 -12 15 -9 8 4 15 14 15 24 0 23 43 68 72
74 12 3 73 17 134 31 62 14 122 29 135 34 26 9 50 4 61 -13z m-93 -278 c9 -25
-20 -65 -38 -53 -6 3 -11 3 -11 -2 0 -4 -10 -8 -22 -9 -13 0 -52 -6 -88 -12
-78 -14 -190 -16 -190 -3 0 18 61 60 93 65 18 3 73 11 122 19 124 20 125 20
134 -5z"/>
<path d="M5566 8363 c-11 -3 -14 -8 -8 -12 5 -3 -39 -6 -98 -6 -59 0 -106 3
-103 7 2 5 -22 6 -53 3 -37 -3 -62 -11 -71 -22 -8 -10 -12 -12 -8 -5 4 7 0 12
-9 12 -8 0 -17 -6 -19 -12 -3 -8 -6 -5 -6 5 -1 28 -21 9 -22 -21 -2 -25 -2
-25 -6 -4 -4 22 -5 23 -19 5 -13 -17 -14 -17 -8 2 4 13 3 16 -3 7 -12 -16 -7
-126 6 -130 6 -2 7 -12 2 -25 -10 -29 -3 -57 14 -57 8 0 19 -9 25 -20 7 -12
16 -17 27 -13 11 5 14 3 8 -6 -6 -10 -2 -11 16 -6 13 4 21 4 16 0 -4 -5 -17
-9 -29 -10 -12 -1 -23 -6 -25 -11 -2 -6 12 -8 32 -6 22 3 35 0 35 -7 0 -7 5
-9 12 -5 7 4 8 3 4 -5 -4 -6 -11 -9 -15 -6 -5 2 -19 -4 -31 -15 -17 -14 -19
-20 -8 -20 8 0 29 -7 47 -16 46 -23 171 -26 171 -4 0 4 -8 7 -17 7 -44 0 -54
5 -64 29 -11 31 -2 47 12 21 11 -18 64 -24 74 -7 3 6 -1 10 -9 10 -19 0 -21
17 -3 23 6 2 18 -3 25 -12 8 -9 11 -11 9 -6 -3 6 2 20 11 33 13 16 21 19 32
12 13 -9 12 -12 -5 -26 -11 -8 -19 -22 -17 -31 2 -11 -1 -14 -12 -10 -8 3 -18
1 -22 -6 -4 -7 -4 -9 1 -5 4 4 14 3 22 -3 10 -9 13 -8 13 1 0 10 3 10 15 0 10
-8 15 -9 15 -2 0 6 7 9 15 6 8 -4 22 0 31 7 10 8 18 9 22 3 6 -8 26 -11 35 -4
5 4 43 11 59 11 27 0 31 30 7 56 -13 13 -17 23 -10 23 7 0 9 5 6 10 -4 6 -10
8 -14 6 -4 -3 -14 4 -21 15 -10 13 -26 19 -50 19 -53 0 -209 55 -195 68 4 4
10 7 13 8 41 4 82 18 82 28 0 8 3 7 8 -1 8 -13 52 -14 52 -1 0 4 5 8 11 8 5 0
7 -4 4 -10 -4 -7 3 -7 20 0 36 14 42 12 19 -5 -22 -17 -15 -19 21 -5 17 7 24
7 20 0 -3 -6 2 -10 12 -10 15 0 16 -2 3 -10 -12 -8 -10 -10 10 -10 30 0 65
-19 40 -21 -8 -1 -19 -1 -23 0 -5 1 -7 -4 -5 -11 3 -7 13 -13 24 -14 10 -1 27
-4 36 -8 22 -10 58 10 58 32 0 31 -22 96 -40 120 -17 20 -19 21 -23 5 -4 -16
-5 -16 -6 -1 -1 12 -6 15 -18 11 -12 -5 -14 -3 -8 7 5 8 4 11 -3 7 -15 -10
-43 3 -35 16 3 6 1 7 -6 3 -6 -4 -23 -1 -36 8 -25 16 -35 18 -69 9z m-236
-293 c0 -5 -4 -10 -10 -10 -5 0 -10 5 -10 10 0 6 5 10 10 10 6 0 10 -4 10 -10z"/>
<path d="M5096 8253 c-6 -14 -5 -15 5 -6 7 7 10 15 7 18 -3 3 -9 -2 -12 -12z"/>
<path d="M5060 8226 c0 -2 8 -10 18 -17 15 -13 16 -12 3 4 -13 16 -21 21 -21
13z"/>
<path d="M4999 7553 c-13 -16 -12 -17 4 -4 16 13 21 21 13 21 -2 0 -10 -8 -17
-17z"/>
<path d="M4980 7051 c0 -6 4 -11 9 -11 5 0 11 -8 13 -17 3 -14 5 -13 10 5 4
13 4 21 1 18 -4 -3 -12 -1 -20 5 -9 9 -13 8 -13 0z"/>
<path d="M5060 7044 c0 -8 5 -12 10 -9 6 3 10 10 10 16 0 5 -4 9 -10 9 -5 0
-10 -7 -10 -16z"/>
<path d="M4210 7765 c0 -8 4 -15 10 -15 5 0 7 7 4 15 -4 8 -8 15 -10 15 -2 0
-4 -7 -4 -15z"/>
</g>
</svg>
